<svg width="80" height="100" xmlns="http://www.w3.org/2000/svg">
 <!-- Created with SVG-edit - http://svg-edit.googlecode.com/ -->

 <g>
  <title>Layer 1</title>
  <g id="svg_8">
   <path id="svg_2" d="m41.20306,56.22665c-1.613041,4.492401 -6.73901,7.0914 -11.41003,5.486481c-4.669979,-1.604893 -7.122009,-6.801792 -5.634951,-11.338989l-9.470519,-3.253513c0,0 0.01532,-0.039787 0.00708,-0.02039c-3.40027,9.904392 1.886289,20.651005 11.78839,24.05331c9.908018,3.399384 20.671999,-1.812813 24.073,-11.716221c0.01001,-0.02042 0,0 0,0l-9.35297,-3.21069l0,0l0,0l0,0.000011z" fill="#b32e50"/>
   <path id="svg_3" d="m42.323792,20.789431c0,10.28162 -8.339291,18.617918 -18.619932,18.617918c-10.283689,0 -18.619929,-8.336298 -18.619929,-18.617918c0,-10.28369 8.33527,-18.619931 18.619929,-18.619931c10.280642,0 18.619932,8.33624 18.619932,18.619931z" fill="#b32e50"/>
   <path id="svg_4" d="m53.362061,23.661591c-0.037842,-0.019381 0,0.003139 0,0.003139l-9.138729,18.26297c0.20697,0.107151 0.39661,0.235569 0.59845,0.349819c0.98901,-0.974819 2.189209,-1.757839 3.60944,-2.191189c4.696228,-1.43454 9.670898,1.210331 11.108459,5.911621c1.378658,4.514858 -1.036869,9.25296 -5.396732,10.891357c0.310062,3.307682 -0.233337,6.729462 -1.819817,9.903408c-4.564823,9.122444 -15.8783,12.712372 -24.757931,8.425064l-9.252991,18.491386c0,0 -0.08057,-0.036674 -0.042721,-0.019409c19.342831,9.678131 42.795589,1.806732 52.47369,-17.536072c9.680054,-19.342796 1.96167,-42.813957 -17.3811,-52.492096l0,0l0,0l0,0l-0.000019,0.00001l0,-0.00001z" fill="#183152"/>
  </g>
 </g>
</svg>