<svg width="600" height="100" xmlns="http://www.w3.org/2000/svg">
 <!-- Created with SVG-edit - http://svg-edit.googlecode.com/ -->

 <g>
  <title>Layer 1</title>
  <metadata/>
  <g id="svg_8">
   <path d="m38.53096,54.676609c-1.382011,3.849052 -5.774429,6.075851 -9.776381,4.700809c-4.00104,-1.375027 -6.10203,-5.827747 -4.82835,-9.715237l-8.113919,-2.787613c0,0 0.01312,-0.034081 0.00612,-0.017479c-2.91343,8.486069 1.61615,17.693752 10.1005,20.608921c8.48867,2.912552 17.711189,-1.553238 20.6255,-10.038452c0.008759,-0.017467 0,0 0,0l-8.01347,-2.75095z" id="svg_5" fill="#3f007f"/>
   <path d="m39.491039,24.31402c0,8.809309 -7.145088,15.951811 -15.953548,15.951811c-8.81107,0 -15.953551,-7.142502 -15.953551,-15.951811c0,-8.81106 7.14164,-15.95355 15.953551,-15.95355c8.80846,0 15.953548,7.14249 15.953548,15.95355z" id="svg_6" fill="#3f007f"/>
   <path d="m48.948589,26.77494c-0.03236,-0.016611 0,0.002619 0,0.002619l-7.83004,15.647779c0.177361,0.09174 0.33984,0.201801 0.512791,0.299652c0.847389,-0.835159 1.87561,-1.506081 3.092541,-1.87735c4.02375,-1.229153 8.285999,1.036961 9.517769,5.06509c1.181141,3.868259 -0.888409,7.927849 -4.62392,9.331707c0.265572,2.83395 -0.200069,5.76572 -1.559368,8.48521c-3.911053,7.816044 -13.60445,10.891964 -21.212582,7.21851l-7.927849,15.843475c0,0 -0.069021,-0.031456 -0.036671,-0.016594c16.57291,8.29213 36.667259,1.547997 44.959419,-15.024933c8.293911,-16.572926 1.680782,-36.683037 -14.892097,-44.975166l0.000008,0z" id="svg_7" fill="#7f003f"/>
  </g>
  <text fill="#000000" stroke="#000000" stroke-width="0" x="335" y="39" id="svg_9" font-size="29" font-family="serif" text-anchor="middle" xml:space="preserve" font-weight="normal">Asociaţia Dăm o Şansă Viitorului</text>
  <text fill="#7f7f7f" stroke="#000000" stroke-width="0" x="402" y="74" id="svg_10" font-size="24" font-family="serif" text-anchor="middle" xml:space="preserve" font-style="italic">www.damosansaviitorului.ro</text>
 </g>
</svg>