<svg width="80" height="100" xmlns="http://www.w3.org/2000/svg">
 <!-- Created with SVG-edit - http://svg-edit.googlecode.com/ -->

 <g>
  <title>Layer 1</title>
  <g id="svg_8">
   <path fill="#ff7f00" d="m41.205204,55.228596c-1.613003,4.492371 -6.739517,7.091351 -11.410336,5.486469c-4.66975,-1.604843 -7.121914,-6.801743 -5.635357,-11.338989l-9.470003,-3.253502c0,0 0.015316,-0.039787 0.007124,-0.020409c-3.400318,9.9044 1.886265,20.650993 11.788673,24.053375c9.907391,3.399361 20.671329,-1.812813 24.072716,-11.716221c0.010189,-0.020374 0,0 0,0l-9.352818,-3.210724z" id="svg_2"/>
   <path fill="#ff7f00" d="m42.325748,19.79138c0,10.281633 -8.339268,18.61791 -18.619938,18.61791c-10.283665,0 -18.619944,-8.336277 -18.619944,-18.61791c0,-10.283698 8.335281,-18.619942 18.619944,-18.619942c10.28067,0 18.619938,8.336243 18.619938,18.619942z" id="svg_3"/>
   <path fill="#7f003f" d="m53.364021,22.663553c-0.037827,-0.019375 0,0.003136 0,0.003136l-9.138756,18.262976c0.207012,0.10714 0.396641,0.235542 0.598454,0.349808c0.989044,-0.9748 2.189232,-1.757828 3.60947,-2.191193c4.696251,-1.434521 9.670891,1.210339 11.108437,5.911644c1.378632,4.514847 -1.03685,9.252949 -5.396713,10.891346c0.31002,3.307674 -0.233368,6.729473 -1.819874,9.903408c-4.564819,9.122437 -15.878273,12.712387 -24.757942,8.425034l-9.252945,18.491394c0,0 -0.080568,-0.036652 -0.042742,-0.019371c19.342848,9.678116 42.795591,1.806725 52.473677,-17.536087c9.680084,-19.342808 1.961708,-42.813972 -17.381065,-52.492092l0,0l0,-0.000002z" id="svg_4"/>
  </g>
 </g>
</svg>