<svg width="320" height="100" xmlns="http://www.w3.org/2000/svg">
 <!-- Created with SVG-edit - http://svg-edit.googlecode.com/ -->

 <g>
  <title>Layer 1</title>
  <text transform="null" font-weight="bold" xml:space="preserve" text-anchor="middle" font-family="Arial" font-size="105" id="svg_1" y="96.5" x="157" fill="#183152">A  SV</text>
  <g id="svg_8">
   <path fill="#b32e50" d="m120.2052,56.2286c-1.61301,4.49237 -6.7395,7.09135 -11.41032,5.48646c-4.66975,-1.60484 -7.12193,-6.80174 -5.63536,-11.33898l-9.47,-3.25351c0,0 0.0153,-0.03978 0.00711,-0.02041c-3.40031,9.9044 1.88628,20.651 11.78868,24.05338c9.90739,3.39936 20.67134,-1.81281 24.07271,-11.71622c0.01019,-0.02038 0,0 0,0l-9.35281,-3.21073l0,0.00001z" id="svg_2"/>
   <path fill="#b32e50" d="m121.32574,20.79138c0,10.28163 -8.33926,18.61791 -18.61993,18.61791c-10.28366,0 -18.61993,-8.33628 -18.61993,-18.61791c0,-10.2837 8.33527,-18.61994 18.61993,-18.61994c10.28067,0 18.61993,8.33624 18.61993,18.61994z" id="svg_3"/>
   <path fill="#183152" d="m132.36401,23.66355c-0.03783,-0.01937 0,0.00314 0,0.00314l-9.13875,18.26297c0.20702,0.10714 0.39665,0.23555 0.59845,0.34981c0.98904,-0.9748 2.18924,-1.75783 3.60948,-2.19119c4.69624,-1.43452 9.67088,1.21034 11.10843,5.91164c1.37863,4.51485 -1.03685,9.25295 -5.39671,10.89135c0.31001,3.30767 -0.23337,6.72947 -1.81987,9.90341c-4.56482,9.12243 -15.87827,12.71238 -24.75793,8.42503l-9.25296,18.4914c0,0 -0.08057,-0.03666 -0.04274,-0.01939c19.34285,9.67812 42.79559,1.80673 52.47368,-17.53608c9.68008,-19.34281 1.96173,-42.81398 -17.38107,-52.49209l0,0l0,-0.00001l0,0.00001z" id="svg_4"/>
  </g>
 </g>
</svg>